# xmcd
#
# Track frame offsets:
# 150
# 15871
# 32152
# 45955
# 56903
# 69409
# 87810
# 100253
# 116332
# 127755
# 139905
# 153699
# 166640
# 177033
# 192029
# 206254
# 220659
# 236571
# 251881
#
# Disc length: 3553 seconds
#
#
# Revision: 0
# Processed by: cddbd v1.5.2PL0 Copyright (c) Steve Scherf et al.
# Submitted via: FreeRIP 2.945 
#
DISCID=ef0ddf13
DTITLE=Wilian and Marlon - W and M - Ao Vivo no Caldas Country
DYEAR=2014
DGENRE=
TTITLE0=Largou o namorado
TTITLE1=Vai descendo
TTITLE2=Emburradinha
TTITLE3=Ainda chora
TTITLE4=Se adianta aí
TTITLE5=Só você não vê
TTITLE6=Namorar pra que
TTITLE7=Faz pensando em mim
TTITLE8=Farra
TTITLE9=Você não sabe amar
TTITLE10=Amor de copo
TTITLE11=O nosso amor valeu
TTITLE12=Harém
TTITLE13=Tô vendo que você tá bem
TTITLE14=Kit do amor
TTITLE15=Eu já sabia
TTITLE16=Carro cinza
TTITLE17=Ainda posso te ouvir me amar
TTITLE18=Tem que ser agora
EXTD=
EXTT0=
EXTT1=
EXTT2=
EXTT3=
EXTT4=
EXTT5=
EXTT6=
EXTT7=
EXTT8=
EXTT9=
EXTT10=
EXTT11=
EXTT12=
EXTT13=
EXTT14=
EXTT15=
EXTT16=
EXTT17=
EXTT18=
PLAYORDER=
